<svg width="341" height="384" viewBox="0 0 341 384" fill="none" xmlns="http://www.w3.org/2000/svg">
<g clip-path="url(#clip0_447_2159)" filter="url(#filter0_d_447_2159)">
<path d="M281.812 261.149C278.452 263.778 274.509 265.533 270.23 266.032C262.636 266.89 254.028 264.193 247.918 268.728C239.243 275.147 243.717 288.965 240.368 299.207C237.417 308.194 227.224 314.13 217.966 312.247C208.714 310.341 201.652 300.889 202.453 291.46C203.052 284.626 207.14 278.679 210.439 272.636C213.715 266.609 216.325 259.366 213.805 252.976C212.259 249.097 208.647 246.624 204.486 246.501C198.88 246.355 195.133 245.963 191.84 242.42C191.151 241.697 190.49 240.822 189.835 239.796C186.234 234.14 184.481 226.987 186.032 220.4C188.485 209.99 197.205 201.856 207.14 197.937C217.059 194.013 228.081 193.8 238.694 194.86C251.457 196.155 264.344 199.384 274.823 206.761C285.307 214.138 293.058 226.208 292.845 239.023C292.689 247.532 288.393 255.992 281.807 261.149H281.812Z" fill="#EAC29D"/>
<path d="M281.812 261.149C276.189 259.064 273.4 251.944 271.619 245.834C269.603 239.012 265.935 230.973 258.856 230.524C250.696 230.042 244.076 240.57 236.235 238.21C231.492 236.758 229.436 231.365 226.345 227.492C220.33 219.957 208.389 218.023 200.313 223.282C195.732 226.281 192.741 231.371 191.862 236.741C191.56 238.563 191.717 240.503 191.84 242.414C191.151 241.691 190.49 240.817 189.835 239.791C186.234 234.134 184.481 226.981 186.032 220.394C188.485 209.984 197.205 201.85 207.14 197.932C217.059 194.008 228.081 193.795 238.694 194.854C251.457 196.149 264.344 199.378 274.823 206.755C285.307 214.133 293.058 226.202 292.845 239.017C292.689 247.527 288.393 255.986 281.807 261.144L281.812 261.149Z" fill="#482437"/>
<path d="M22.1038 149.11C30.0061 137.618 40.8263 127.46 54.234 123.649C67.6417 119.837 83.788 123.727 91.5895 135.292C98.7414 145.893 97.8509 160.417 105.025 171.001C111.662 180.789 124.101 185.532 130.401 195.544C135.072 202.966 135.66 212.529 133.078 220.916C130.502 229.302 125.013 236.573 118.461 242.403C100.763 258.15 74.4799 263.543 52.0162 256.042C29.3228 248.463 16.5872 230.737 7.73277 209.62C-0.326385 190.398 10.9027 165.395 22.0981 149.11H22.1038Z" fill="#E57557"/>
<path d="M26.5054 153.651C33.6013 143.325 43.3238 134.204 55.3649 130.785C67.4117 127.36 81.9114 130.858 88.9177 141.245C95.3415 150.764 94.5407 163.815 100.987 173.317C106.951 182.112 118.119 186.367 123.775 195.359C127.97 202.024 128.497 210.618 126.178 218.147C123.859 225.681 118.937 232.212 113.05 237.448C97.1505 251.591 73.5443 256.435 53.3711 249.696C32.9852 242.891 21.5489 226.97 13.5962 208C6.3603 190.734 16.4412 168.277 26.4998 153.651H26.5054Z" fill="#EF8C6A"/>
<path d="M59.6164 159.201C61.7054 160.031 63.016 161.152 64.1473 162.346C65.2282 163.557 66.0179 164.874 66.5555 166.292C67.0932 167.705 67.3732 169.219 67.362 170.844C67.306 172.487 67.0539 174.197 66.0234 176.204C63.9232 175.379 62.6071 174.258 61.4814 173.064C60.4005 171.853 59.6108 170.536 59.0788 169.112C58.5467 167.694 58.2667 166.18 58.2835 164.555C58.3451 162.912 58.586 161.202 59.6108 159.195L59.6164 159.201Z" fill="white"/>
<path d="M42.966 174.157C45.1278 173.546 46.8527 173.642 48.4769 173.9C50.0731 174.202 51.5012 174.774 52.7837 175.57C54.0718 176.366 55.2087 177.398 56.1832 178.698C57.1297 180.038 57.9754 181.546 58.373 183.771C56.2056 184.394 54.4751 184.298 52.8565 184.035C51.2604 183.732 49.8322 183.16 48.5553 182.353C47.2728 181.546 46.1303 180.514 45.1614 179.214C44.2149 177.868 43.3692 176.366 42.966 174.152V174.157Z" fill="white"/>
<path d="M34.1511 192.814C35.7864 191.272 37.3601 190.56 38.9227 190.044C40.4796 189.579 42.0086 189.422 43.5151 189.54C45.0217 189.652 46.5114 190.044 47.9732 190.745C49.4293 191.496 50.8742 192.444 52.252 194.238C50.611 195.79 49.0373 196.508 47.4803 197.018C45.9234 197.483 44.3944 197.64 42.8879 197.517C41.3813 197.394 39.8916 197.007 38.4299 196.301C36.9681 195.544 35.5288 194.602 34.1511 192.819V192.814Z" fill="white"/>
<path d="M98.2822 203.185C97.6606 201.021 96.6637 199.608 95.5884 198.369C94.4907 197.175 93.2529 196.261 91.892 195.589C90.5367 194.916 89.0582 194.496 87.4396 194.35C85.8043 194.249 84.0793 194.333 81.9791 195.168C82.6007 197.343 83.5864 198.756 84.6673 199.995C85.765 201.189 87.0028 202.103 88.3637 202.764C89.7246 203.431 91.2032 203.852 92.8217 203.992C94.4627 204.087 96.1876 204.009 98.2766 203.179L98.2822 203.185Z" fill="white"/>
<path d="M81.8167 218.343C82.6344 216.246 82.7016 214.52 82.6008 212.877C82.4496 211.257 82.0239 209.783 81.3519 208.426C80.6854 207.07 79.7669 205.831 78.5684 204.737C77.3307 203.667 75.9081 202.68 73.7295 202.069C72.9063 204.171 72.8335 205.898 72.9399 207.54C73.0911 209.155 73.5167 210.635 74.2 211.986C74.8776 213.342 75.7961 214.576 76.9947 215.669C78.238 216.74 79.6549 217.726 81.8223 218.343H81.8167Z" fill="white"/>
<path d="M62.4163 225.35C64.1077 223.865 64.9646 222.368 65.6254 220.86C66.2359 219.358 66.5383 217.844 66.5663 216.33C66.5999 214.817 66.3535 213.298 65.7935 211.773C65.1886 210.248 64.3765 208.718 62.73 207.176C61.0274 208.662 60.1649 210.158 59.5097 211.666C58.8992 213.169 58.5968 214.682 58.5744 216.196C58.552 217.709 58.7984 219.229 59.3584 220.753C59.9689 222.278 60.7698 223.809 62.4107 225.35H62.4163Z" fill="white"/>
<path d="M74.8442 181.434C78.0253 178.463 81.212 175.486 84.7348 172.941C85.7596 172.201 86.9638 171.467 88.2015 171.708C89.9376 172.05 90.7553 174.253 90.2793 175.957C89.8032 177.661 88.4479 178.956 87.1486 180.161C72.7888 193.481 58.4291 206.806 44.0749 220.125C43.3636 220.787 42.5684 221.488 41.5939 221.555C39.7905 221.684 38.5808 219.442 39.0064 217.681C39.4321 215.921 40.8826 214.626 42.2435 213.432C44.6742 211.302 45.8503 208.516 48.2249 206.301C51.2156 203.51 54.2119 200.712 57.2025 197.915C63.0831 192.421 68.9693 186.928 74.8498 181.434H74.8442Z" fill="#E57557"/>
<path d="M216.476 62.6007C223.908 69.3894 220.184 84.0992 210.416 86.5266C221.147 84.4524 232.6 92.7827 234.409 103.574C236.212 114.365 228.517 125.745 217.949 128.543C207.381 131.345 195.351 125.611 190.4 115.856C195.754 124.663 191.699 137.523 182.587 142.322C173.475 147.12 161.149 143.695 155.15 135.314C149.158 126.934 149.595 114.752 155.52 106.321C152.507 115.055 139.553 117.605 132.631 111.495C125.708 105.379 125.787 93.4947 131.847 86.521C137.906 79.5473 148.469 77.5123 157.262 80.3377C152.053 78.6671 149.488 54.1919 149.942 49.6007C150.765 41.3321 154.165 33.2989 162.963 31.505C184.441 27.1156 188.065 57.107 193.128 70.1743C196.085 61.1656 208.714 55.4981 216.487 62.6007H216.476Z" fill="#ABA15B"/>
<path d="M265.782 331.458C263.189 330.376 263.514 324.535 263.335 322.158C263.083 318.772 261.895 304.606 268.734 306.54C273.959 308.02 273.701 315.291 272.996 319.478C272.525 322.253 271.635 325.191 270.162 327.612C268.162 330.909 266.774 331.862 265.777 331.452L265.782 331.458Z" fill="white"/>
<path d="M254.095 363.109C252.98 360.524 257.27 356.556 258.793 354.722C260.961 352.11 269.944 341.095 273.517 347.25C276.245 351.947 271.014 356.998 267.597 359.521C265.329 361.192 262.652 362.683 259.913 363.4C256.189 364.376 254.526 364.101 254.095 363.114V363.109Z" fill="white"/>
<path d="M293.365 346.998C290.772 345.916 291.097 340.074 290.918 337.697C290.666 334.312 289.479 320.145 296.317 322.079C301.536 323.559 301.284 330.83 300.579 335.018C300.108 337.793 299.218 340.73 297.745 343.152C295.746 346.448 294.357 347.401 293.36 346.992L293.365 346.998Z" fill="white"/>
<path d="M326 158.5C320.562 162.049 315.079 163.882 309.59 165.317C304.096 166.674 298.585 167.335 293.063 167.492C287.541 167.632 282.002 167.251 276.447 166.175C270.891 165.025 265.324 163.461 259.712 160.171C265.15 156.6 270.633 154.761 276.122 153.332C281.616 151.981 287.127 151.319 292.649 151.179C298.171 151.056 303.71 151.437 309.266 152.519C314.821 153.674 320.388 155.226 326 158.495V158.5Z" fill="#ABA15B"/>
<path d="M65.5415 62.1354C60.4058 58.1552 56.8774 53.5752 53.7299 48.8495C50.644 44.1013 48.2134 39.1065 46.2588 33.9323C44.3154 28.7581 42.8593 23.3933 42.0528 17.7874C41.3136 12.1535 40.9663 6.37946 42.232 -0.00561523C47.3845 3.96334 50.9185 8.54333 54.066 13.2691C57.1463 18.0172 59.5769 23.0121 61.5147 28.1919C63.4413 33.3773 64.8974 38.7365 65.6983 44.3424C66.4319 49.9763 66.7904 55.7503 65.5415 62.1242V62.1354Z" fill="#ABA15B"/>
</g>
<defs>
<filter id="filter0_d_447_2159" x="0" y="0" width="341" height="384" filterUnits="userSpaceOnUse" color-interpolation-filters="sRGB">
<feFlood flood-opacity="0" result="BackgroundImageFix"/>
<feColorMatrix in="SourceAlpha" type="matrix" values="0 0 0 0 0 0 0 0 0 0 0 0 0 0 0 0 0 0 127 0" result="hardAlpha"/>
<feOffset dx="5" dy="10"/>
<feGaussianBlur stdDeviation="5"/>
<feColorMatrix type="matrix" values="0 0 0 0 0 0 0 0 0 0 0 0 0 0 0 0 0 0 0.1 0"/>
<feBlend mode="plus-darker" in2="BackgroundImageFix" result="effect1_dropShadow_447_2159"/>
<feBlend mode="normal" in="SourceGraphic" in2="effect1_dropShadow_447_2159" result="shape"/>
</filter>
<clipPath id="clip0_447_2159">
<rect width="321" height="364" fill="white" transform="matrix(-1 0 0 1 326 0)"/>
</clipPath>
</defs>
</svg>
